<svg width="23" height="22" viewBox="0 0 23 22" fill="none" xmlns="http://www.w3.org/2000/svg">
<path d="M21.126 11.2138C21.126 10.4224 21.0604 9.84488 20.9186 9.246H11.6974V12.8179H17.1101C17.001 13.7056 16.4117 15.0424 15.1021 15.9407L15.0838 16.0602L17.9994 18.2737L18.2014 18.2935C20.0565 16.6145 21.126 14.144 21.126 11.2138Z" fill="#4285F4"/>
<path d="M11.6968 20.625C14.3485 20.625 16.5747 19.7694 18.2007 18.2936L15.1015 15.9407C14.2722 16.5075 13.1591 16.9032 11.6968 16.9032C9.09959 16.9032 6.89525 15.2242 6.10947 12.9035L5.99429 12.9131L2.96264 15.2125L2.92299 15.3205C4.53805 18.4646 7.8555 20.625 11.6968 20.625Z" fill="#34A853"/>
<path d="M6.11004 12.9036C5.9027 12.3047 5.78271 11.663 5.78271 11C5.78271 10.3369 5.9027 9.69524 6.09913 9.09636L6.09364 8.96881L3.02399 6.63257L2.92355 6.67938C2.25791 7.98412 1.87596 9.44929 1.87596 11C1.87596 12.5507 2.25791 14.0158 2.92355 15.3205L6.11004 12.9036Z" fill="#FBBC05"/>
<path d="M11.6968 5.09664C13.5411 5.09664 14.7851 5.87733 15.4944 6.52974L18.2663 3.8775C16.5639 2.32681 14.3486 1.375 11.6968 1.375C7.85553 1.375 4.53805 3.53526 2.92299 6.6794L6.09858 9.09638C6.89528 6.77569 9.09963 5.09664 11.6968 5.09664Z" fill="#EB4335"/>
</svg>
